<svg viewBox="0 0 15 15" fill="none" xmlns="http://www.w3.org/2000/svg">
<path d="M14.5138 1.04032C15.1621 1.68769 15.1621 2.73733 14.5138 3.38469L13.6257 4.27567L10.7248 1.3754L11.6158 0.485603C12.264 -0.161868 13.312 -0.161868 13.9602 0.485603L14.5138 1.04032ZM5.10336 6.99894L10.0558 2.04497L12.9567 4.94465L8.00138 9.89684C7.82081 10.0804 7.5988 10.2165 7.3531 10.2994L4.72446 11.1756C4.44324 11.2585 4.18866 11.1934 3.99625 10.9773C3.8068 10.8115 3.74167 10.5303 3.82456 10.2757L4.70078 7.64719C4.78366 7.40151 4.91983 7.1795 5.10336 6.99894ZM5.68356 1.71226C6.20751 1.71226 6.63082 2.16307 6.63082 2.65948C6.63082 3.21005 6.20751 3.6067 5.68356 3.6067H2.84178C2.31871 3.6067 1.89452 4.05663 1.89452 4.55392V12.1583C1.89452 12.6823 2.31871 13.1056 2.84178 13.1056H10.4199C10.9438 13.1056 11.3671 12.6823 11.3671 12.1583V9.29003C11.3671 8.79274 11.7904 8.34281 12.3144 8.34281C12.8383 8.34281 13.2616 8.79274 13.2616 9.29003V12.1583C13.2616 13.7272 11.9888 15 10.4199 15H2.84178C1.27229 15 0 13.7272 0 12.1583V4.55392C0 2.98508 1.27229 1.71226 2.84178 1.71226H5.68356Z" fill="black"/>
</svg>
